<svg width="1375" height="1426" viewBox="0 0 1375 1426" fill="none" xmlns="http://www.w3.org/2000/svg">
<path d="M623.012 565.338C605.733 561.368 592.304 552.575 583.183 537.317C577.504 528.296 574.566 517.715 574.75 506.943C575.025 499.314 571.61 498.007 565.858 497.436C554.996 496.272 544.294 494.18 534.898 487.93C517.573 476.403 507.398 460.004 507.398 438.542C507.398 430.105 504.006 428.584 497.681 428.014C486.452 427.016 475.544 424.568 466.033 417.913C446.485 404.223 437.96 385.067 439.817 360.707C440.16 355.953 441.375 354.646 446.073 355.43C515.51 367.044 584.956 378.539 654.408 389.916C689.135 395.62 723.884 401.221 758.656 406.719C770.527 408.596 771.742 407.194 769.84 395.049C764.5 361.087 780.037 330.523 809.875 316.334C826.429 308.366 845.292 307.257 862.608 313.234C879.924 319.211 894.384 331.823 903.031 348.491C920.173 381.597 909.287 422.619 877.387 443.319C872.506 446.457 871.842 449.19 872.987 454.561C895.01 559.134 834.235 658.598 733.494 681.557C679.983 693.749 630.667 681.557 586.529 648.164C579.883 643.126 578.302 644.219 576.331 651.658C572.504 666.227 567.898 680.606 563.704 695.08C562.581 698.906 561.275 701.972 556.967 703.279C537.212 709.197 519.154 706.25 502.54 693.44C497.154 689.281 497.429 686.643 502.333 681.984C542.224 644.084 581.946 606.002 621.5 567.738C622.079 566.991 622.585 566.187 623.012 565.338Z" fill="#95CB39"/>
<path d="M406.817 951.974L436.608 851.084C440.367 838.346 444.629 825.725 447.746 812.82C449.35 806.118 452.535 804.478 458.54 804.882C465.408 805.334 472.296 805.334 479.165 804.882C486.04 804.407 487.483 806.142 485.123 813.295C471.9 853.699 459.135 894.102 446.165 934.672C439.519 955.468 432.667 976.192 426.319 997.083C424.646 1002.53 422.194 1004.69 416.648 1004.21C409.781 1003.71 402.889 1003.71 396.023 1004.21C390.385 1004.62 388.185 1002.15 386.421 996.845C377.002 968.587 367.171 940.471 357.454 912.307C356.331 909.004 355.048 905.772 353.421 901.351C341.962 934.149 330.848 965.521 320.215 997.107C318.335 1002.69 315.792 1004.52 310.406 1004.24C301.606 1003.69 291.042 1006.61 284.396 1002.64C277.75 998.675 277.521 986.459 274.748 977.856C256.713 923.192 238.952 868.529 220.71 813.866C218.029 805.88 219.977 804.359 227.31 804.763C234.452 805.274 241.619 805.274 248.76 804.763C254.444 804.359 256.529 806.807 258.156 812.25C271.54 856.907 285.29 901.494 298.925 946.08C299.613 948.314 300.415 950.548 301.652 954.303C309.627 932.034 315.677 910.359 325.004 890.323C336.646 865.297 337.265 841.911 325.004 817.193C319.206 805.548 320.421 804.882 333.094 804.882C356.813 804.882 356.79 804.882 364.329 827.864C377.025 866.557 389.767 905.233 402.554 943.893C403.448 946.626 403.356 949.978 406.817 951.974Z" fill="white"/>
<path d="M669.625 825.915C670.057 825.414 670.455 824.882 670.817 824.323C673.544 818.239 670.817 807.948 676.66 805.927C684.681 803.194 694.192 805.096 703.061 805.096C707.025 805.096 706.475 808.185 706.475 810.8C706.475 821.495 706.475 832.19 706.475 842.885C706.475 893.056 706.292 943.251 706.681 993.446C706.681 1001.67 705.306 1005.57 696.598 1004.26C689.723 1003.19 680.556 1007.25 675.973 1002.57C671.825 998.461 672.169 989.501 670.335 981.943C665.615 985.936 661.49 989.881 656.929 993.161C604.977 1030.59 530.338 999.863 516.106 934.481C506.39 889.8 515.304 850.205 550.802 819.783C579.127 795.518 633.531 790.503 666.233 823.016C667.15 824.014 668.319 824.846 669.625 825.915ZM672.169 903.68C672.268 897.608 671.629 891.547 670.267 885.641C664.24 856.954 642.01 836.8 615.129 835.731C584.719 834.447 561.917 851.274 553.254 881.291C550.636 890.702 549.628 900.515 550.275 910.287C552.91 954.802 588.798 982.799 628.513 971.367C654.546 963.881 672.054 937.286 672.169 903.68V903.68Z" fill="white"/>
<path d="M1146.41 904.464C1146.41 964.76 1104.19 1009.04 1046.65 1008.82C989.725 1008.82 947.788 964.166 948.108 904.25C948.429 843.907 990.115 800.247 1047.34 800.342C1104.56 800.438 1146.36 844.572 1146.41 904.464ZM985.738 906.389C985.898 908.766 986.081 913.02 986.517 917.156C989.679 945.818 1011.52 969.751 1037.48 973.079C1067.96 976.976 1093.88 961.195 1104.35 932.319C1108.32 920.511 1109.71 907.938 1108.43 895.504C1107.9 885.909 1105.28 876.562 1100.78 868.159C1096.28 859.756 1090.01 852.513 1082.44 846.968C1074.87 841.424 1066.19 837.72 1057.05 836.132C1047.91 834.545 1038.55 835.114 1029.65 837.799C1003.09 845.404 985.692 871.951 985.692 906.389H985.738Z" fill="white"/>
<path d="M810.746 969.3C841.569 969.3 871.91 969.514 902.229 969.134C909.104 969.134 912.221 970.417 911.396 978.212C910.479 986.388 914.604 996.988 909.838 1002.26C905.071 1007.54 894.69 1003.93 886.806 1003.95C847.848 1004.17 808.89 1003.95 770.046 1004.19C763.423 1004.19 761.842 1002.41 761.223 995.396C759.939 980.518 764.615 969.086 773.529 957.512C800.823 922.052 827.085 885.712 853.738 849.658C855.731 846.949 858.573 844.691 859.215 840.817C856.51 838.94 853.623 839.914 850.919 839.89C826.306 839.89 801.694 839.581 777.104 840.009C770.412 840.128 768.602 837.846 769.106 831.406C769.496 825.185 769.496 818.945 769.106 812.725C768.808 807.187 770.252 804.906 776.21 804.953C817.995 805.223 859.772 805.223 901.542 804.953C907.706 804.953 908.715 807.164 909.265 813.082C910.663 828.173 906.033 839.938 896.844 851.821C868.885 887.875 842.096 924.928 814.917 961.599C813.267 963.643 811.112 965.355 810.746 969.3Z" fill="white"/>
<path d="M745.937 386.779C727.604 385.923 709.798 381.645 691.762 378.793C642.354 370.974 592.992 362.751 543.583 354.813C532.927 353.101 531.163 352.175 535.746 342.359C541.085 330.951 535.494 327.624 527.519 322.894C498.942 305.972 488.767 274.22 502.15 246.437C504.579 241.398 506.367 240.329 511.569 243.49C588.385 290.342 665.278 337.027 742.248 383.547C743.646 384.378 745.525 384.806 745.846 386.921L745.937 386.779Z" fill="white"/>
<path d="M1087.81 1105.84C1092.76 1091.58 1096.97 1079.39 1101.15 1067.29C1102.41 1064.31 1104.73 1061.95 1107.63 1060.7C1110.53 1059.45 1113.78 1059.41 1116.71 1060.59C1119.25 1061.82 1118.49 1064.03 1118.52 1065.91C1118.52 1082.55 1118.52 1099.18 1118.63 1115.82C1118.63 1120.24 1117.1 1121.24 1113.15 1121.34C1108.57 1121.45 1107.15 1119.96 1107.26 1115.25C1107.73 1104.13 1107.15 1092.98 1105.52 1081.98C1101.88 1092.65 1098.3 1103.37 1094.59 1113.99C1093.42 1117.39 1093.29 1121.31 1087.72 1121.34C1082.15 1121.36 1082.01 1117.68 1080.84 1114.21L1070.12 1082.6H1067.82C1067.82 1093.43 1067.64 1104.29 1067.82 1115.11C1067.94 1119.7 1066.68 1121.17 1062.05 1121.26C1056.89 1121.26 1056.73 1118.74 1056.78 1114.73C1056.92 1099.02 1056.78 1083.28 1056.94 1067.55C1056.94 1064.89 1054.83 1059.97 1060.31 1060.42C1064.89 1060.8 1070.87 1057.02 1073.42 1064.56C1076.99 1075.19 1080.61 1085.8 1084.28 1096.38C1085.22 1098.85 1086.11 1101.18 1087.81 1105.84Z" fill="white"/>
<path d="M842.852 1059.14C848.878 1059.3 854.721 1061.31 859.646 1064.92C864.571 1068.52 868.356 1073.56 870.525 1079.39C872.694 1085.23 873.149 1091.59 871.833 1097.69C870.517 1103.8 867.489 1109.36 863.131 1113.67C858.772 1117.99 853.279 1120.88 847.342 1121.96C841.406 1123.05 835.293 1122.28 829.774 1119.77C824.254 1117.26 819.576 1113.11 816.328 1107.84C813.081 1102.57 811.409 1096.43 811.525 1090.18C811.723 1081.76 815.132 1073.76 821.004 1067.94C826.876 1062.13 834.733 1058.96 842.852 1059.14V1059.14ZM861.644 1090.51C861.641 1087.83 861.121 1085.18 860.116 1082.71C859.11 1080.24 857.638 1078 855.787 1076.13C853.935 1074.26 851.742 1072.79 849.336 1071.81C846.93 1070.83 844.359 1070.36 841.775 1070.43C839.191 1070.5 836.646 1071.1 834.289 1072.2C831.933 1073.3 829.813 1074.88 828.053 1076.84C826.294 1078.81 824.931 1081.12 824.044 1083.64C823.158 1086.15 822.766 1088.83 822.892 1091.51C822.918 1094.18 823.458 1096.81 824.482 1099.26C825.505 1101.71 826.991 1103.92 828.851 1105.76C830.711 1107.6 832.909 1109.04 835.313 1109.99C837.718 1110.94 840.281 1111.38 842.852 1111.28C853.99 1111.07 861.942 1102.39 861.644 1090.51Z" fill="white"/>
<path d="M985.142 1120.31C967.221 1125.73 966.808 1107.5 957.16 1100.06C957.16 1105.96 956.977 1111.09 957.16 1116.2C957.367 1120.12 955.877 1121.45 952.21 1121.22C949.094 1121 945.931 1121.81 946 1116.46C946.183 1099.3 946.115 1082.12 946 1064.94C946 1061.61 947.054 1060.18 950.446 1060.18C956.725 1060.42 963.05 1059.92 969.283 1060.61C973.034 1060.8 976.608 1062.32 979.407 1064.92C982.206 1067.51 984.061 1071.03 984.66 1074.87C986.631 1084.38 983.904 1091.94 975.952 1095.9C970.91 1098.42 970.429 1100.11 974.027 1104.44C977.625 1108.76 981.108 1114.54 985.142 1120.31ZM957.138 1080.12C958.26 1083.28 954.044 1089.92 962.637 1089.3C968.848 1088.87 974.44 1087.97 974.279 1079.79C974.119 1072.14 968.481 1071.69 962.821 1071.02C955.212 1070.21 957.504 1075.7 957.138 1080.12V1080.12Z" fill="white"/>
<path d="M488.675 1120.43C496.283 1101.42 503.708 1082.62 511.431 1063.91C511.879 1062.79 512.631 1061.82 513.596 1061.12C514.561 1060.43 515.7 1060.03 516.874 1059.99C518.049 1059.95 519.211 1060.26 520.221 1060.88C521.231 1061.51 522.046 1062.42 522.569 1063.51C529.994 1081.12 537.029 1098.92 544.179 1116.68C544.775 1118.17 546.035 1120.65 543.537 1120.86C540.1 1121.12 536.067 1122.93 533.248 1119.12C532.382 1117.92 531.794 1116.53 531.529 1115.06C530.04 1106.65 524.998 1105.08 517.321 1105.13C509.644 1105.17 505.129 1106.65 502.792 1114.89C500.775 1122 500.019 1121.67 488.675 1120.43ZM517.229 1076.73C510.102 1095.74 510.102 1095.74 522.935 1093.65L517.229 1076.73Z" fill="white"/>
<path d="M969.902 352.46C953.723 366.862 938.896 380.1 924.069 393.267C923.49 393.917 922.695 394.316 921.845 394.382C920.994 394.448 920.151 394.177 919.485 393.623C917.904 392.197 918.546 390.462 919.004 388.704C923.041 374.42 923.287 359.271 919.715 344.854C918.729 341.075 920.196 339.982 923.633 340.838L969.902 352.46Z" fill="white"/>
<path d="M282.15 1090.18C282.15 1082.19 282.425 1074.18 282.15 1066.2C281.944 1061.44 283.685 1059.99 288.04 1060.3C293.746 1060.68 299.498 1060.14 305.158 1060.85C314.508 1062.06 320.054 1069.5 319.871 1079.53C319.688 1089.56 314.325 1096.17 305.525 1097.69C293.448 1099.76 293.356 1099.76 293.356 1113.28C293.356 1118.03 293.654 1122.07 286.871 1121.34C283.044 1120.91 282.104 1119.6 282.288 1115.96C282.15 1107.41 282.15 1098.78 282.15 1090.18ZM293.081 1079.15C293.288 1082.98 291.523 1088.01 298.467 1087.25C303.623 1086.68 308.665 1085.9 308.688 1079.17C308.71 1072.45 303.829 1071.64 298.558 1071.12C291.569 1070.43 293.173 1075.28 293.013 1079.15H293.081Z" fill="white"/>
<path d="M711.654 1090.46C711.654 1082.48 711.86 1074.47 711.654 1066.48C711.494 1062.08 712.456 1059.97 717.246 1060.25C723.502 1060.66 729.804 1060.47 736.06 1060.25C739.704 1060.25 741.881 1060.68 741.927 1065.41C741.973 1070.14 739.933 1071.57 735.763 1071.12C733.792 1070.93 731.752 1071.33 729.781 1071.12C724.213 1070.33 722.585 1072.57 722.517 1078.41C722.448 1084.26 724.808 1085.3 729.942 1085.78C733.563 1086.11 740.277 1080.72 740.942 1090.32C741.331 1095.98 738.65 1096.33 734.388 1096.33C722.746 1096.33 722.746 1096.5 722.746 1108.57C722.746 1111.54 722.746 1114.49 722.746 1117.46C722.746 1122.38 719.217 1120.95 716.627 1121.17C714.038 1121.38 711.631 1121.17 711.7 1117.13C711.792 1108.24 711.677 1099.35 711.654 1090.46Z" fill="white"/>
<path d="M619.621 1095.36C619.621 1090.6 619.483 1085.85 619.621 1081.1C619.827 1075.3 620.492 1069.64 611.806 1070.9C607.75 1071.5 608.804 1067.62 608.644 1065.17C608.483 1062.73 608.483 1060.3 611.898 1060.3C620.446 1060.3 628.994 1060.42 637.542 1060.3C641.483 1060.3 641.277 1062.68 641.346 1065.53C641.346 1068.72 641.346 1071.83 637.037 1071.07C630.483 1069.93 630.483 1074.13 630.621 1078.89C630.804 1090.41 630.621 1101.97 630.621 1113.49C630.621 1117.6 631.446 1121.45 624.915 1121.36C618.383 1121.26 619.644 1116.89 619.575 1113.06C619.552 1107.17 619.621 1101.28 619.621 1095.36Z" fill="white"/>
<path d="M391.623 1090.46C391.623 1082.45 391.829 1074.44 391.623 1066.43C391.462 1062.01 392.517 1060.23 397.238 1060.18C402.463 1060.18 402.485 1062.87 402.44 1066.79C402.44 1078.67 402.852 1090.56 402.233 1102.44C401.867 1109.33 404.09 1111.54 410.346 1110.52C412.294 1110.19 414.356 1110.52 416.327 1110.52C419.925 1110.24 420.658 1112.28 420.544 1115.42C420.429 1118.55 420.773 1120.86 416.419 1121.43C393.044 1124.5 391.692 1123.45 391.692 1099.49L391.623 1090.46Z" fill="white"/>
<path d="M745.823 386.921L747.313 387.397C746.35 388.419 746.327 387.207 745.96 386.779L745.823 386.921Z" fill="#4F4F4F"/>
</svg>
